<svg width="70" height="70" viewBox="0 0 70 70" fill="none" xmlns="http://www.w3.org/2000/svg">
<path d="M49.5834 52.4999C51.1305 52.4999 52.6142 53.1145 53.7082 54.2085C54.8022 55.3024 55.4167 56.7862 55.4167 58.3332C55.4167 59.8803 54.8022 61.3641 53.7082 62.458C52.6142 63.552 51.1305 64.1666 49.5834 64.1666C48.0363 64.1666 46.5526 63.552 45.4586 62.458C44.3647 61.3641 43.7501 59.8803 43.7501 58.3332C43.7501 55.0957 46.3459 52.4999 49.5834 52.4999ZM2.91675 5.83325H12.4542L15.1959 11.6666H58.3334C59.107 11.6666 59.8488 11.9739 60.3958 12.5209C60.9428 13.0678 61.2501 13.8097 61.2501 14.5833C61.2501 15.0791 61.1042 15.5749 60.9001 16.0416L50.4584 34.9124C49.4667 36.6916 47.5417 37.9166 45.3542 37.9166H23.6251L21.0001 42.6707L20.9126 43.0207C20.9126 43.2141 20.9894 43.3996 21.1261 43.5364C21.2629 43.6731 21.4484 43.7499 21.6417 43.7499H55.4167V49.5832H20.4167C18.8697 49.5832 17.3859 48.9687 16.292 47.8747C15.198 46.7807 14.5834 45.297 14.5834 43.7499C14.5834 42.7291 14.8459 41.7666 15.2834 40.9499L19.2501 33.8041L8.75008 11.6666H2.91675V5.83325ZM20.4167 52.4999C21.9638 52.4999 23.4476 53.1145 24.5415 54.2085C25.6355 55.3024 26.2501 56.7862 26.2501 58.3332C26.2501 59.8803 25.6355 61.3641 24.5415 62.458C23.4476 63.552 21.9638 64.1666 20.4167 64.1666C18.8697 64.1666 17.3859 63.552 16.292 62.458C15.198 61.3641 14.5834 59.8803 14.5834 58.3332C14.5834 55.0957 17.1792 52.4999 20.4167 52.4999ZM46.6667 32.0833L54.7751 17.4999H17.9084L24.7917 32.0833H46.6667Z" fill="#999999"/>
</svg>
