<svg width="63" height="63" viewBox="0 0 63 63" fill="none" xmlns="http://www.w3.org/2000/svg">
<path d="M45.2812 13.7812H53.1562V21.6562H45.2812V13.7812ZM45.2812 25.5938H53.1562V33.4688H45.2812V25.5938ZM33.4688 13.7812H41.3438V21.6562H33.4688V13.7812ZM33.4688 25.5938H41.3438V33.4688H33.4688V25.5938Z" fill="#999999"/>
<path d="M28.5469 51.1875C30.1778 51.1875 31.5 49.8653 31.5 48.2344C31.5 46.6034 30.1778 45.2812 28.5469 45.2812C26.9159 45.2812 25.5938 46.6034 25.5938 48.2344C25.5938 49.8653 26.9159 51.1875 28.5469 51.1875Z" fill="#999999"/>
<path d="M41.3438 59.0625H15.75C14.7057 59.0625 13.7042 58.6477 12.9658 57.9092C12.2273 57.1708 11.8125 56.1693 11.8125 55.125V7.875C11.8125 6.83071 12.2273 5.82919 12.9658 5.09077C13.7042 4.35234 14.7057 3.9375 15.75 3.9375H41.3438V7.875H15.75V55.125H41.3438V39.375H45.2812V55.125C45.2812 56.1693 44.8664 57.1708 44.128 57.9092C43.3896 58.6477 42.388 59.0625 41.3438 59.0625Z" fill="#999999"/>
</svg>
