<svg width="50" height="32" viewBox="0 0 50 32" fill="none" xmlns="http://www.w3.org/2000/svg">
<g clip-path="url(#clip0_105_12979)">
<path d="M9.00354 0.167969L10.0786 0.893257L14.7751 3.67689C15.3409 4.34509 14.5188 4.62379 14.1993 5.09053C15.2444 6.30942 17.115 6.07101 18.5595 6.04415C20.1172 4.40218 22.79 4.16377 24.9402 4.01267C27.8359 3.8112 29.4968 4.22757 32.2461 4.66409C33.2613 4.82526 34.2399 4.82526 35.2617 4.72788L35.3516 4.65066C35.052 4.43575 34.9588 4.00595 35.1918 3.70711L41.0399 0.167969H42.1449C43.0037 1.00071 43.8724 1.82673 44.628 2.7602C46.6184 5.20805 48.1561 8.3409 49.2412 11.3092C49.391 11.7155 49.7405 12.5382 49.8104 12.9075C49.8636 13.1929 49.8004 13.5354 49.8237 13.8309L43.6228 17.5581C43.1435 17.7059 42.8972 17.4809 42.7241 17.0444L42.1716 17.6555C41.4626 18.2599 40.727 18.8307 39.9049 19.2706L39.8816 19.3512C41.1897 20.973 39.8616 23.666 37.778 23.5585C37.9544 25.4523 36.2835 27.0439 34.4096 26.6209C34.363 28.33 32.812 29.5254 31.1511 29.1291C31.0013 30.2104 29.9928 31.1976 28.911 31.2983C28.2553 31.3587 27.3733 31.2211 26.7109 31.1237C25.4261 30.9357 24.1613 30.6133 22.9531 30.1365C22.8799 30.1499 22.3573 30.892 22.2308 31.023C20.9727 32.2855 18.7925 32.0572 17.9038 30.4823C17.7441 30.1969 17.6941 29.9048 17.531 29.6328C15.8036 30.4689 13.437 29.3541 13.4737 27.2924C11.1737 27.9841 9.17995 25.8989 10.0487 23.619C8.16144 23.5854 6.82674 21.705 7.48244 19.8884C7.61891 19.5056 7.87853 19.1934 8.0982 18.8576C8.00834 18.6628 7.9218 18.4614 7.80863 18.2767C7.70877 18.1121 7.33599 17.5883 7.20951 17.4876C7.04308 17.3566 6.65033 17.7797 6.36408 17.5581L0.166504 13.8108V12.921C0.53929 12.0882 0.79891 11.2085 1.13508 10.3623C2.3766 7.24289 4.00754 4.16713 6.29751 1.69913C6.79012 1.16524 7.3493 0.698504 7.84524 0.167969H9.00354ZM8.43105 1.23575C4.87959 4.31152 2.83592 8.7304 1.33812 13.1258L6.17103 16.084C6.26756 16.0941 6.40069 15.9128 6.45062 15.8288C6.80011 15.2244 7.14627 13.9384 7.44916 13.2164C8.85376 9.85191 10.7244 6.6687 13.4237 4.20407L8.43105 1.23575ZM43.6394 16.1512C43.716 16.1646 43.7759 16.1377 43.8458 16.1075C44.3783 15.8859 45.3203 15.2412 45.8661 14.9155C46.6816 14.4286 47.6036 13.9082 48.3858 13.3911C48.4856 13.3273 48.6587 13.2467 48.6654 13.1191C48.6654 13.0653 48.459 12.424 48.4191 12.3098C47.3373 9.19042 45.6398 5.69494 43.5063 3.17657C43.0769 2.66954 42.2681 1.75286 41.7655 1.36671C41.6956 1.31298 41.6224 1.22904 41.5225 1.23911L36.5698 4.20742C40.058 7.3537 42.1815 11.7323 43.6394 16.1545V16.1512ZM25.3429 5.1409C23.3359 5.23156 20.8329 5.43303 19.3317 6.87689C18.3365 7.83051 16.3428 10.0332 15.8435 11.2689C15.3809 12.4139 15.8169 13.747 17.2082 13.6194C18.6794 13.4851 20.9727 10.5436 22.3074 9.65716C22.8632 9.2878 24.1114 8.75391 24.7704 8.79756C24.9468 8.80763 25.3695 9.07962 25.5526 9.18035C26.418 9.66388 27.2767 10.1944 28.1288 10.7048C31.9366 12.9814 35.5479 15.4628 38.8664 18.4278C39.0129 18.4681 39.3757 18.2465 39.5254 18.1659C39.9016 17.9678 40.3609 17.6622 40.7004 17.4003C40.9733 17.1887 42.1982 16.0605 42.2781 15.8154C42.3247 15.671 42.2281 15.5065 42.1815 15.3587C41.9219 14.5797 41.5425 13.6966 41.2096 12.9411C40.048 10.2951 38.5236 7.78014 36.5032 5.70837C35.5246 5.78224 34.4695 6.0005 33.491 5.96356C31.9233 5.90312 30.4055 5.33565 28.8544 5.18119C27.7494 5.07038 26.4513 5.09053 25.3363 5.1409H25.3429ZM17.4012 7.23953C15.94 7.20931 14.4189 7.07164 13.3904 5.90648C13.1574 5.86619 11.4067 8.20994 11.1704 8.55915C9.58602 10.8996 8.47432 13.5422 7.53902 16.2015C7.52571 16.3392 7.83526 16.4937 7.93178 16.5944C8.27794 16.947 8.63076 17.3734 8.84378 17.82C8.93032 17.8402 8.95694 17.7898 9.0102 17.7394C9.6426 17.1485 9.76576 16.5138 10.721 16.1243C12.302 15.4796 13.9097 16.3829 14.4489 17.9342C16.4093 14.986 20.4634 16.9537 19.3916 20.3283C21.7016 20.2242 22.9797 23.1354 21.5451 24.8949L22.5404 25.1166C22.0677 24.6498 22.3639 23.9178 23.0529 24.0723C24.8004 25.2005 26.6144 26.2616 28.5748 26.9701C29.2372 27.2085 30.0394 27.3529 30.6584 27.598C30.8914 27.6886 31.0479 27.8834 31.2842 27.9707C32.3793 28.3703 33.4344 27.4704 33.2513 26.3187C33.2413 26.2515 33.2214 26.1709 33.1714 26.1205C33.0949 26.0433 31.5871 25.5296 31.3241 25.4221C29.2006 24.5491 27.0205 23.4175 25.0633 22.212C24.7837 22.0408 23.8251 21.4968 23.662 21.3155C23.3592 20.9797 23.6055 20.3518 24.0648 20.335C24.371 20.3216 25.2963 21.02 25.6158 21.2114C27.8193 22.521 29.9794 23.6425 32.3593 24.6062C32.8253 24.7942 33.3911 24.9184 33.8371 25.1199C34.2332 25.2979 34.373 25.5296 34.8856 25.5665C35.6611 25.6236 36.5165 24.999 36.6197 24.1999C36.6463 23.985 36.6297 23.4477 36.5165 23.2664C36.4699 23.1892 35.1119 22.6586 34.8922 22.5512C31.8866 21.1208 29.0308 19.368 26.1318 17.7428C26.0652 17.6857 25.8988 17.3231 25.9054 17.2425C25.9154 17.1082 26.0519 17.1182 26.1018 17.0444C26.1517 16.9705 26.1251 16.8362 26.2083 16.7623C26.3181 16.6683 26.5944 16.7019 26.7242 16.7556C27.0105 16.9806 27.3633 17.2324 27.6828 17.407C30.1958 18.7871 32.8286 20.3485 35.4481 21.5506C36.1304 21.8628 37.3753 22.4773 38.0909 22.3934C39.2292 22.2624 39.6819 20.6238 38.8065 19.8313C37.5317 18.6796 35.994 17.4641 34.6326 16.4097C31.4939 13.9854 28.0722 11.9707 24.6406 9.9963C21.7449 10.3489 20.3935 14.1029 17.581 14.6872C15.6837 15.0834 14.1327 13.4213 14.5554 11.5275C14.9182 9.89892 16.426 8.5155 17.4012 7.24289V7.23953ZM11.6996 17.0544C11.3667 17.0746 10.934 17.266 10.6877 17.4876C10.3582 17.7831 8.80384 19.7239 8.63408 20.0933C7.88851 21.6949 9.66258 23.1254 11.0439 22.1348C11.3501 21.9166 13.0975 19.7038 13.2506 19.3478C13.7133 18.27 12.8712 16.9906 11.6996 17.0544ZM14.2858 25.2039C15.6604 23.5384 16.9585 21.7655 18.2566 20.0462C18.9922 18.505 17.3746 16.8765 15.94 17.9879C15.8002 18.0954 15.5939 18.3203 15.4674 18.458C14.2325 19.8213 12.8379 21.7017 11.7129 23.1959C11.3701 23.6492 11.0306 23.9749 10.9906 24.5827C10.9074 25.8452 12.0824 26.5638 13.2174 26.1608C13.68 25.9963 13.9829 25.5699 14.2825 25.2039H14.2858ZM19.3783 21.4532C18.9523 21.47 18.4963 21.6949 18.2267 22.024C17.3047 23.394 15.9101 24.6767 15.0347 26.0433C13.8198 27.9405 15.5739 29.4313 17.3147 28.4005C18.5129 26.7988 19.9175 25.3079 20.9527 23.6022C21.2056 22.5646 20.5033 21.4129 19.3783 21.4532ZM23.1994 25.5631C24.0548 26.3925 24.351 27.4939 23.9616 28.6423C23.9083 28.7967 23.7952 28.9445 23.7419 29.0922C23.722 29.1526 23.662 29.1459 23.7519 29.2097C24.0448 29.4112 25.526 29.747 25.9487 29.8343C26.7076 29.9887 28.5848 30.3044 29.2472 30.019C29.7331 29.8108 30.0926 29.203 30.0194 28.6792L29.9328 28.5986C28.3585 28.1755 26.8574 27.5443 25.4062 26.8156L23.1994 25.5631ZM21.0326 26.0769C20.8096 26.1138 20.4334 26.322 20.2737 26.4832C19.9941 26.7619 19.0322 27.9942 18.8458 28.33C18.1135 29.6563 19.4815 31.117 20.8961 30.5629C21.3721 30.3783 22.4438 29.0385 22.7267 28.565C23.5023 27.2723 22.5104 25.8418 21.0326 26.0769Z" fill="black" stroke="black" stroke-miterlimit="10"/>
</g>
<defs>
<clipPath id="clip0_105_12979">
<rect width="50" height="32" fill="white"/>
</clipPath>
</defs>
</svg>
