<svg width="62" height="62" viewBox="0 0 62 62" fill="none" xmlns="http://www.w3.org/2000/svg">
<path d="M7.74999 44.5625V54.25H17.4375L46.0092 25.6525L36.3217 15.965L7.74999 44.5625ZM58.4092 47.43L47.43 58.4092L33.9967 44.9758L38.5692 40.4033L41.1525 42.9867L47.5333 36.58L51.2017 40.2483L47.43 43.9167L50.1683 46.5L53.8367 42.8833L58.4092 47.43ZM17.0758 27.9775L3.59082 14.57L14.57 3.59082L19.1167 8.16332L12.7358 14.57L15.5 17.3083L21.855 10.9017L25.5233 14.57L21.855 18.2125L24.4383 20.7958L17.0758 27.9775ZM53.5008 18.0833C54.5083 17.0758 54.5083 15.5 53.5008 14.4408L47.4558 8.49915C46.5 7.49165 44.8208 7.49165 43.8133 8.49915L39.06 13.2267L48.7475 22.9142L53.5008 18.0833Z" fill="#999999"/>
</svg>
