<svg width="43" height="43" viewBox="0 0 43 43" fill="none" xmlns="http://www.w3.org/2000/svg">
<g clip-path="url(#clip0_105_12842)">
<path d="M42.8064 25.4733C42.6932 25.6042 42.5654 25.6406 42.3974 25.6587C41.3859 25.7751 40.1297 25.5388 39.1181 25.6515C38.9903 25.666 38.9465 25.6587 38.8661 25.7714C38.7456 25.9459 38.417 27.2765 38.2855 27.6364C37.8838 28.7307 37.3324 29.7559 36.7956 30.7883C36.7956 30.872 37.0768 31.1664 37.1461 31.2428C37.6976 31.839 38.8223 32.697 39.2313 33.315C39.3372 33.4786 39.4139 33.6676 39.3336 33.8567L34.1407 39.1317C33.8741 39.2989 33.6148 39.2589 33.3592 39.0881L31.0148 36.7541C30.9527 36.6887 30.8943 36.685 30.8066 36.6959C30.6204 36.7214 29.5577 37.383 29.2546 37.5285C28.1371 38.0483 26.9722 38.4591 25.7781 38.7718C25.6795 38.9245 25.8365 41.6801 25.7635 42.2C25.727 42.4581 25.6137 42.6544 25.38 42.778L17.8829 42.7998C17.5871 42.709 17.4812 42.3236 17.4483 42.0473C17.3899 41.5602 17.5177 38.9099 17.4301 38.7718C15.6297 38.3319 13.9572 37.5721 12.3431 36.6887L9.81969 39.1317C9.61884 39.2553 9.38513 39.2662 9.16967 39.1862L4.12653 34.2093C3.8782 33.9984 3.84534 33.6603 3.94394 33.3586L6.43082 30.8065C5.89035 29.745 5.31701 28.7052 4.91166 27.5783C4.6889 26.9602 4.56839 26.255 4.27625 25.6915C3.19897 25.5024 1.78937 25.8223 0.744955 25.6515C0.394382 25.5933 0.281176 25.2697 0.251961 24.9571C0.0547637 22.794 0.412641 20.3328 0.251961 18.137C0.266568 17.7735 0.427248 17.479 0.810687 17.4354C1.32924 17.3736 4.1813 17.5299 4.33833 17.4281C4.7875 15.6467 5.485 13.9344 6.43447 12.3603L6.36143 12.1385L3.94028 9.73551C3.84899 9.52102 3.8782 9.18655 4.01697 9.00115L9.17697 3.92244C9.39973 3.857 9.65536 3.857 9.8489 4.00242L12.3431 6.46361C13.4971 5.74016 14.7423 5.18393 16.0278 4.74405C16.2578 4.66407 17.284 4.4314 17.3643 4.37323C17.4447 4.31506 17.43 4.23872 17.441 4.15147C17.536 3.39893 17.2329 0.95228 17.6236 0.483308C17.7003 0.388787 17.9486 0.283359 18.0728 0.265182C20.2931 0.410599 22.7982 0.0543261 24.9893 0.257911C25.4604 0.301536 25.7087 0.465131 25.7708 0.963186C25.8329 1.46124 25.6795 4.16601 25.7781 4.32233C27.5602 4.81312 29.3094 5.46386 30.8614 6.46725L33.3556 4.00242C33.5747 3.84246 33.8887 3.83882 34.1225 3.97333L39.1912 8.99388C39.5016 9.35742 39.3263 9.66643 39.0743 9.99362C38.7858 10.3681 36.8138 12.1349 36.781 12.3021C37.6757 13.9235 38.3951 15.574 38.8881 17.3663C38.9465 17.4426 39.0268 17.4317 39.1108 17.4426C40.1151 17.5626 41.3968 17.3081 42.3901 17.4354C42.5581 17.4572 42.6421 17.5553 42.7955 17.5881V25.4733H42.8064ZM24.4342 1.59575H18.7812V4.74405C18.7812 4.91491 18.8652 4.95127 18.7228 5.20211C18.4964 5.60565 17.357 5.71471 16.8677 5.87103C16.225 6.07462 15.5348 6.32546 14.9176 6.59812C14.0229 6.99438 13.2122 7.52152 12.3504 7.97232L11.8282 7.81963L9.44721 5.45296L5.50326 9.44831C5.8867 10.0082 7.80389 11.466 7.96457 11.9604C8.12525 12.4548 7.39854 13.3237 7.13927 13.8145C6.62436 14.7997 6.2044 15.7885 5.87574 16.8537C5.73697 17.3081 5.61646 18.3806 5.2805 18.6314C5.23667 18.6642 5.01026 18.7805 4.98105 18.7805H1.59948V24.3354H4.9847C5.01391 24.3354 5.24033 24.4481 5.28415 24.4845C5.60916 24.7281 5.75158 25.8587 5.894 26.3204C6.24092 27.4219 6.67914 28.4289 7.2123 29.4505C7.45332 29.9122 8.1216 30.6684 7.96092 31.1555L5.4996 33.744L9.44355 37.6666L12.0071 35.1836C12.5001 35.0273 13.2159 35.6635 13.6723 35.9034C14.7241 36.456 15.7283 36.885 16.864 37.2449C17.3497 37.3976 18.5 37.5248 18.7191 37.9138C18.8616 38.1683 18.7776 38.201 18.7776 38.3719V41.5202H24.4306V38.0047C24.4306 37.8702 24.7519 37.6848 24.8797 37.6375C25.3764 37.4521 26.0045 37.3758 26.5303 37.2049C27.6953 36.8304 28.7653 36.3397 29.8389 35.758C30.2479 35.5362 30.719 35.0309 31.2047 35.1872L33.8047 37.6375L37.745 33.7112L35.4006 31.3809C35.2947 31.2537 35.2143 31.061 35.2143 30.8938C35.2143 30.6066 36.1017 29.3269 36.2989 28.9379C36.7079 28.1272 37.0804 27.1565 37.3543 26.284C37.5004 25.8114 37.6245 24.3427 38.2307 24.3427H41.616V18.7878H38.2307C38.0883 18.7878 37.7925 18.5405 37.7304 18.3988C37.5223 17.9225 37.3945 16.9809 37.2046 16.4029C36.8723 15.3923 36.4012 14.418 35.9009 13.48C35.6124 12.942 34.9149 12.3494 35.4006 11.7495L37.745 9.41922L33.7682 5.5293L31.4749 7.80509C30.8833 8.29951 30.0909 7.51062 29.5394 7.22342C28.495 6.67447 27.4798 6.23458 26.3478 5.88194C25.968 5.76197 24.4306 5.54384 24.4306 5.12577V1.59575H24.4342Z" fill="black" stroke="black" stroke-width="1.08" stroke-miterlimit="10"/>
<path d="M20.9979 9.98268C30.0106 9.46645 36.1346 19.1513 31.8365 27.0656C27.8195 34.4637 17.295 35.2635 12.281 28.4653C6.78873 21.0199 11.7734 10.5098 20.9979 9.98268ZM20.8482 11.3169C13.5154 11.8731 9.07841 19.7838 12.5075 26.3131C16.0826 33.1223 25.6832 33.7148 30.0726 27.3855C34.9734 20.3146 29.4226 10.6661 20.8482 11.3169Z" fill="black" stroke="black" stroke-width="1.08" stroke-miterlimit="10"/>
<path d="M26.5741 17.7484C27.2497 17.6357 27.5857 18.4936 27.111 18.9553L20.2383 25.7354C19.979 25.8372 19.7014 25.8518 19.4896 25.6555C18.5475 24.5176 17.021 23.4633 16.1409 22.3254C15.6114 21.6419 16.0168 20.9985 16.8311 21.1948L19.9279 24.1686L26.1469 17.9883C26.2601 17.9011 26.4427 17.7666 26.5778 17.7447L26.5741 17.7484Z" fill="black" stroke="black" stroke-width="1.08" stroke-miterlimit="10"/>
</g>
<defs>
<clipPath id="clip0_105_12842">
<rect width="43" height="43" fill="white"/>
</clipPath>
</defs>
</svg>
