<svg width="64" height="64" viewBox="0 0 64 64" fill="none" xmlns="http://www.w3.org/2000/svg">
<path d="M45.4 55.9999L44.6 51.9999C44.0667 51.7777 43.5671 51.5448 43.1013 51.3013C42.6356 51.0577 42.1573 50.7573 41.6667 50.3999L37.8 51.5999L35.1333 47.0666L38.2 44.3999C38.1111 43.8666 38.0667 43.2888 38.0667 42.6666C38.0667 42.0444 38.1111 41.4666 38.2 40.9333L35.1333 38.2666L37.8 33.7333L41.6667 34.9333C42.1556 34.5777 42.6338 34.2781 43.1013 34.0346C43.5689 33.791 44.0684 33.5573 44.6 33.3333L45.4 29.3333H50.7333L51.5333 33.3333C52.0667 33.5555 52.5671 33.7893 53.0347 34.0346C53.5022 34.2799 53.9796 34.5795 54.4667 34.9333L58.3333 33.7333L61 38.2666L57.9333 40.9333C58.0222 41.4666 58.0667 42.0444 58.0667 42.6666C58.0667 43.2888 58.0222 43.8666 57.9333 44.3999L61 47.0666L58.3333 51.5999L54.4667 50.3999C53.9778 50.7555 53.5004 51.0559 53.0347 51.3013C52.5689 51.5466 52.0684 51.7795 51.5333 51.9999L50.7333 55.9999H45.4ZM13.3333 53.3333C11.8667 53.3333 10.6116 52.8115 9.568 51.7679C8.52444 50.7244 8.00178 49.4684 8 47.9999V10.6666C8 9.19992 8.52267 7.94481 9.568 6.90125C10.6133 5.8577 11.8684 5.33503 13.3333 5.33325H50.6667C52.1333 5.33325 53.3893 5.85592 54.4347 6.90125C55.48 7.94659 56.0018 9.2017 56 10.6666V25.7333C55.1556 25.3333 54.2889 25.0106 53.4 24.7653C52.5111 24.5199 51.6 24.3324 50.6667 24.2026V10.6666H13.3333V34.6666H24.5333C24.9333 35.8666 25.6 36.911 26.5333 37.7999C27.4667 38.6888 28.5111 39.311 29.6667 39.6666C29.2667 42.0666 29.3227 44.4444 29.8347 46.7999C30.3467 49.1555 31.3129 51.3333 32.7333 53.3333H13.3333ZM48.0667 47.9999C49.5333 47.9999 50.7893 47.4781 51.8347 46.4346C52.88 45.391 53.4018 44.135 53.4 42.6666C53.3982 41.1981 52.8764 39.943 51.8347 38.9013C50.7929 37.8595 49.5369 37.3368 48.0667 37.3333C46.5964 37.3297 45.3413 37.8524 44.3013 38.9013C43.2613 39.9501 42.7387 41.2053 42.7333 42.6666C42.728 44.1279 43.2507 45.3839 44.3013 46.4346C45.352 47.4853 46.6071 48.007 48.0667 47.9999Z" fill="#999999"/>
</svg>
