<svg width="64" height="64" viewBox="0 0 64 64" fill="none" xmlns="http://www.w3.org/2000/svg">
<path d="M16.5 4C14.7761 4 13.1228 4.68482 11.9038 5.90381C10.6848 7.12279 10 8.77609 10 10.5V21.014C10.1665 21.0052 10.3332 21.0005 10.5 21H14V10.5C14 9.12 15.12 8 16.5 8H53.5C54.88 8 56 9.12 56 10.5V35.5C56 36.88 54.88 38 53.5 38H29V42H40V48H29V52H48C48.5304 52 49.0391 51.7893 49.4142 51.4142C49.7893 51.0391 50 50.5304 50 50C50 49.4696 49.7893 48.9609 49.4142 48.5858C49.0391 48.2107 48.5304 48 48 48H44V42H53.5C55.2239 42 56.8772 41.3152 58.0962 40.0962C59.3152 38.8772 60 37.2239 60 35.5V10.5C60 8.77609 59.3152 7.12279 58.0962 5.90381C56.8772 4.68482 55.2239 4 53.5 4H16.5ZM4 30.5C4 28.7761 4.68482 27.1228 5.90381 25.9038C7.12279 24.6848 8.77609 24 10.5 24H19.5C21.2239 24 22.8772 24.6848 24.0962 25.9038C25.3152 27.1228 26 28.7761 26 30.5V53.5C26 55.2239 25.3152 56.8772 24.0962 58.0962C22.8772 59.3152 21.2239 60 19.5 60H10.5C8.77609 60 7.12279 59.3152 5.90381 58.0962C4.68482 56.8772 4 55.2239 4 53.5V30.5ZM10.5 28C9.12 28 8 29.12 8 30.5V53.5C8 54.88 9.12 56 10.5 56H19.5C20.88 56 22 54.88 22 53.5V30.5C22 29.12 20.88 28 19.5 28H10.5ZM14 50C13.4696 50 12.9609 50.2107 12.5858 50.5858C12.2107 50.9609 12 51.4696 12 52C12 52.5304 12.2107 53.0391 12.5858 53.4142C12.9609 53.7893 13.4696 54 14 54H16C16.5304 54 17.0391 53.7893 17.4142 53.4142C17.7893 53.0391 18 52.5304 18 52C18 51.4696 17.7893 50.9609 17.4142 50.5858C17.0391 50.2107 16.5304 50 16 50H14Z" fill="#999999"/>
</svg>
