<svg width="39" height="49" viewBox="0 0 39 49" fill="none" xmlns="http://www.w3.org/2000/svg">
<path d="M10.4432 4.44259L10.9636 4.9152C14.5241 8.67587 15.7361 13.3413 14.3529 18.3645C14.3529 18.6211 14.5241 18.7899 14.7775 18.6953C15.0308 18.6008 15.9963 17.8041 16.2565 17.5813C19.8376 14.5768 21.7274 10.6406 21.4672 5.94145C21.414 5.00308 21.241 4.04654 21.0687 3.0935C20.9087 2.20883 20.7493 1.32718 20.6866 0.465864C20.6856 0.44428 20.6838 0.420282 20.6818 0.394778C20.6718 0.260724 20.6587 0.085087 20.7277 0C22.3231 0.823702 23.7542 1.78919 25.1511 2.90996C34.4702 10.4043 41.2352 22.7666 38.3115 34.879C35.0453 48.4026 18.6119 53.1153 7.59471 45.0403C1.97311 40.9218 -0.635688 34.3659 0.131204 27.513C0.609474 23.2418 2.85864 19.8111 5.11695 16.3664C6.83542 13.7451 8.55918 11.1158 9.51194 8.10198C9.79584 7.20108 10.0136 6.26948 10.2297 5.34479C10.3003 5.04288 10.3707 4.74171 10.4432 4.44259ZM11.3125 8.89268C10.573 11.1475 9.47071 13.2807 8.22465 15.306C7.69461 16.1618 7.14351 16.9879 6.59809 17.8055C4.5788 20.8326 2.63736 23.7429 2.1306 27.6075C0.350316 41.1446 14.0791 50.7184 26.6643 45.6479C36.6339 41.6307 38.6333 30.774 35.7985 21.4095C33.7238 14.5431 28.9307 8.39906 23.2818 4.01723C23.4735 5.89419 23.5625 7.72389 23.2544 9.60085C22.6176 13.4695 20.269 16.8791 17.2493 19.3367C15.962 20.3832 14.4488 21.558 12.9698 19.9646C12.1029 19.0321 12.3769 17.7013 12.6372 16.4371C12.7388 15.9439 12.8383 15.4609 12.8671 15.0157C12.9972 13.0442 12.6891 10.9849 11.6688 9.27002C11.6606 9.25729 11.6484 9.23423 11.6331 9.20542C11.5606 9.06899 11.4196 8.80344 11.3125 8.89268Z" fill="black"/>
<path d="M10.4432 4.44259L10.9636 4.9152C14.5241 8.67587 15.7361 13.3413 14.3529 18.3645C14.3529 18.6211 14.5241 18.7899 14.7775 18.6953C15.0308 18.6008 15.9963 17.8041 16.2565 17.5813C19.8376 14.5768 21.7274 10.6406 21.4672 5.94145C21.414 5.00308 21.241 4.04654 21.0687 3.0935C20.9087 2.20883 20.7493 1.32718 20.6866 0.465864C20.6856 0.44428 20.6838 0.420282 20.6818 0.394778C20.6718 0.260724 20.6587 0.085087 20.7277 0C22.3231 0.823702 23.7542 1.78919 25.1511 2.90996C34.4702 10.4043 41.2352 22.7666 38.3115 34.879C35.0453 48.4026 18.6119 53.1153 7.59471 45.0403C1.97311 40.9218 -0.635688 34.3659 0.131204 27.513C0.609474 23.2418 2.85864 19.8111 5.11695 16.3664C6.83542 13.7451 8.55918 11.1158 9.51194 8.10198C9.79584 7.20108 10.0136 6.26948 10.2297 5.34479C10.3003 5.04288 10.3707 4.74171 10.4432 4.44259ZM11.3125 8.89268C10.573 11.1475 9.47071 13.2807 8.22465 15.306C7.69461 16.1618 7.14351 16.9879 6.59809 17.8055C4.5788 20.8326 2.63736 23.7429 2.1306 27.6075C0.350316 41.1446 14.0791 50.7184 26.6643 45.6479C36.6339 41.6307 38.6333 30.774 35.7985 21.4095C33.7238 14.5431 28.9307 8.39906 23.2818 4.01723C23.4735 5.89419 23.5625 7.72389 23.2544 9.60085C22.6176 13.4695 20.269 16.8791 17.2493 19.3367C15.962 20.3832 14.4488 21.558 12.9698 19.9646C12.1029 19.0321 12.3769 17.7013 12.6372 16.4371C12.7388 15.9439 12.8383 15.4609 12.8671 15.0157C12.9972 13.0442 12.6891 10.9849 11.6688 9.27002C11.6606 9.25729 11.6484 9.23423 11.6331 9.20542C11.5606 9.06899 11.4196 8.80344 11.3125 8.89268Z" stroke="black"/>
<path d="M16.1414 24.0133C17.3696 23.9601 18.5077 24.3789 19.5237 25.0702C20.2247 24.6049 20.9899 24.2127 21.8258 24.0798C26.745 23.3154 29.9409 29.2511 26.6679 33.2126C25.717 34.3645 24.593 35.4502 23.4684 36.5365C22.4255 37.5438 21.382 38.5518 20.4754 39.6136C19.7231 40.2118 19.035 40.0855 18.3534 39.4408C17.722 38.6088 16.7569 37.6924 15.7318 36.7192C13.6041 34.699 11.2181 32.4337 11.0228 30.1683C10.7463 26.9978 13.0162 24.1329 16.1349 24L16.1414 24.0133ZM15.897 25.9475C13.402 26.2732 12.0195 29.4505 13.4856 31.5974L19.543 37.8854L25.3239 31.8965C27.7996 28.6395 24.1922 24.3722 20.8613 26.4394C20.6963 26.5413 20.5592 26.6704 20.4252 26.7966C20.157 27.0493 19.9011 27.2902 19.4594 27.2769C19.123 27.2678 18.8963 27.0602 18.666 26.8493C18.5617 26.7538 18.4568 26.6577 18.3406 26.579C17.5882 26.0738 16.8101 25.8279 15.897 25.9475Z" fill="black"/>
<path d="M16.1414 24.0133C17.3696 23.9601 18.5077 24.3789 19.5237 25.0702C20.2247 24.6049 20.9899 24.2127 21.8258 24.0798C26.745 23.3154 29.9409 29.2511 26.6679 33.2126C25.717 34.3645 24.593 35.4502 23.4684 36.5365C22.4255 37.5438 21.382 38.5518 20.4754 39.6136C19.7231 40.2118 19.035 40.0855 18.3534 39.4408C17.722 38.6088 16.7569 37.6924 15.7318 36.7192C13.6041 34.699 11.2181 32.4337 11.0228 30.1683C10.7463 26.9978 13.0162 24.1329 16.1349 24L16.1414 24.0133ZM15.897 25.9475C13.402 26.2732 12.0195 29.4505 13.4856 31.5974L19.543 37.8854L25.3239 31.8965C27.7996 28.6395 24.1922 24.3722 20.8613 26.4394C20.6963 26.5413 20.5592 26.6704 20.4252 26.7966C20.157 27.0493 19.9011 27.2902 19.4594 27.2769C19.123 27.2678 18.8963 27.0602 18.666 26.8493C18.5617 26.7538 18.4568 26.6577 18.3406 26.579C17.5882 26.0738 16.8101 25.8279 15.897 25.9475Z" stroke="black"/>
</svg>
