<svg width="39" height="38" viewBox="0 0 39 38" fill="none" xmlns="http://www.w3.org/2000/svg">
<path d="M33.9238 37.9068C31.6385 37.0486 30.6479 34.384 31.9186 32.2281L23.1465 23.3484C19.8432 26.0095 14.9891 24.8675 12.9293 21.2236L7.68583 23.3103C7.57652 23.8328 7.64142 24.3139 7.5082 24.8675C6.59614 28.6707 1.15452 28.6983 0.215128 24.8675C-0.782332 20.7876 4.53973 18.3479 6.90358 21.7323L12.2359 19.6387C12.3657 19.5141 12.1197 18.5036 12.1027 18.2337C12.0104 16.5934 12.5843 14.9151 13.5442 13.6139L7.20418 7.18773C3.8907 9.17061 0.085322 5.48169 1.97776 2.03847C3.38514 -0.518855 7.07096 -0.570763 8.52616 1.95196C9.27083 3.24273 9.1786 4.68231 8.50566 5.98001L14.7705 12.3231C16.7996 10.9286 19.0985 10.5029 21.4316 11.3888C21.6503 11.4719 22.4394 11.9252 22.5726 11.8456L26.3335 6.93857C25.6333 5.84851 25.319 4.64079 25.7016 3.36039C26.4634 0.830749 29.5924 -0.162421 31.6488 1.50555C34.7505 4.02481 32.4447 9.04257 28.448 8.21897C28.2567 8.1809 27.7648 7.94212 27.6589 8.01133L23.8365 12.9564C26.2208 15.3995 26.5214 19.4138 24.366 22.106L33.1313 30.9927C36.1032 29.2382 39.6626 31.8889 38.7676 35.2976C38.45 36.5087 37.473 37.4292 36.3594 37.9033H33.9204L33.9238 37.9068ZM3.81555 5.42286C5.87196 7.50956 8.88142 3.98329 6.52782 2.23918C4.45775 0.70617 2.029 3.60955 3.81555 5.42286ZM28.8306 2.45719C26.4634 2.86208 26.781 6.9628 29.6539 6.56484C32.1612 6.21878 31.8264 1.94504 28.8306 2.45719ZM18.3505 12.6796C14.6817 13.0602 12.6697 17.2994 14.528 20.5177C16.5161 23.9643 21.5785 23.909 23.4744 20.4069C25.5205 16.628 22.5418 12.2436 18.3505 12.6761V12.6796ZM3.51153 21.895C1.26041 22.2029 1.27408 25.6185 3.39197 25.9888C6.66104 26.5597 6.72936 21.452 3.51153 21.895ZM36.6053 35.7474C38.4431 33.8857 35.7753 30.9581 33.794 32.6641C31.6317 34.5259 34.5831 37.7961 36.6053 35.7474Z" fill="black" stroke="black" stroke-width="0.53" stroke-miterlimit="10"/>
</svg>
