<svg width="47" height="48" viewBox="0 0 47 48" fill="none" xmlns="http://www.w3.org/2000/svg">
<path d="M45.9478 15.7098V17.0682C45.7754 17.1961 45.6605 17.2829 45.4348 17.3118C43.6288 17.5264 41.4042 17.1507 39.5531 17.3076C38.6132 17.0723 38.5762 15.7842 39.5531 15.5612C41.437 15.6892 43.5796 15.3754 45.4348 15.553C45.6318 15.5736 45.7631 15.6809 45.9478 15.714V15.7098Z" fill="black" stroke="black" stroke-miterlimit="10"/>
<path d="M23.4268 2.7951C32.9573 2.62582 40.017 12.5882 35.9987 21.4854C34.8782 23.9626 31.886 27.2986 31.3401 29.5858C31.1924 30.2134 31.2334 31.4644 30.1827 31.2662C28.5655 30.9607 30.0513 27.9055 30.5069 27.0756C32.2431 23.8883 35.1162 21.0602 35.3748 17.1917C35.9207 9.00457 28.1223 2.79097 20.2786 5.06998C13.9824 6.89896 10.1365 13.9177 12.5869 20.1849C13.7074 23.0461 17.8324 27.5876 17.8037 30.2877C17.7913 31.4148 16.2317 31.708 15.9854 30.4281C15.3779 27.2821 13.1123 25.1847 11.6593 22.3937C6.96791 13.3809 13.5022 2.97263 23.4268 2.7951Z" fill="black" stroke="black" stroke-miterlimit="10"/>
<path d="M18.0336 43.1031C17.8817 43.2517 19.5112 44.094 19.6507 44.1559C22.4007 45.3656 26.0291 45.2665 28.6354 43.7265C29.2962 43.3343 29.9981 42.3558 30.7615 42.9792C32.0954 44.0733 29.169 45.5142 28.3727 45.8528C25.5037 47.0748 21.6332 47.0377 18.8011 45.7248C17.147 44.9568 14.7623 43.3714 16.9993 41.625C20.8698 40.4112 24.6664 38.896 28.5492 37.7276C29.0622 37.5748 29.4932 37.3189 29.9652 37.707C30.5193 38.1611 30.351 38.9332 29.7272 39.2263L18.0336 43.099V43.1031Z" fill="black" stroke="black" stroke-miterlimit="10"/>
<path d="M17.0404 34.0782C16.2482 33.9172 16.121 32.6249 16.9336 32.3731L29.4399 32.3276C31.0406 32.6497 31.3731 34.7346 29.8832 35.4737L17.9721 39.4867C16.9172 39.9285 15.8952 39.1275 16.6299 38.0995L28.3728 34.0782H17.0404Z" fill="black" stroke="black" stroke-miterlimit="10"/>
<path d="M22.8686 7.66716C23.6321 7.63001 24.3627 7.75799 24.2395 8.72409C24.1164 9.6902 23.0082 9.41358 22.3884 9.50028C19.6959 9.88424 17.2784 12.1178 16.7817 14.8138C16.6545 15.5074 16.8351 16.9566 15.928 17.0681C14.6762 17.225 14.8362 15.8666 14.9388 15.0368C15.4396 11.1063 18.912 7.84469 22.8645 7.66303L22.8686 7.66716Z" fill="black" stroke="black" stroke-miterlimit="10"/>
<path d="M6.63964 1.03266C6.94337 0.970727 7.22658 1.00789 7.48106 1.18955C8.8068 2.35382 10.7277 3.30754 11.9919 4.48833C12.7348 5.18194 12.1724 6.27603 11.1751 6.02831L6.26204 2.4942C5.79823 2.06069 6.00756 1.16064 6.63964 1.03266Z" fill="black" stroke="black" stroke-miterlimit="10"/>
<path d="M40.0415 1.0323C41.0307 0.805229 41.5766 1.825 40.9035 2.53513L36.2531 5.92887C35.3214 6.42844 34.3938 5.33022 35.1777 4.52926L40.0415 1.0323Z" fill="black" stroke="black" stroke-miterlimit="10"/>
<path d="M35.5061 26.8278C35.8016 26.7576 36.1013 26.8113 36.3516 26.9847C37.6117 28.1448 39.6885 29.115 40.8624 30.2834C41.6464 31.0679 40.9609 32.1248 39.9307 31.778L35.2147 28.3678C34.7016 27.9508 34.8371 26.9805 35.5143 26.8236L35.5061 26.8278Z" fill="black" stroke="black" stroke-miterlimit="10"/>
<path d="M11.1709 26.8281C12.1477 26.6051 12.6977 27.6456 12.0328 28.3309L7.27575 31.7783C6.31531 32.1458 5.5765 31.0228 6.29889 30.3209L11.1709 26.8281Z" fill="black" stroke="black" stroke-miterlimit="10"/>
<path d="M1.62812 15.5651L7.64935 15.5527C8.64263 15.7674 8.63853 17.0845 7.64935 17.2991H1.69379C0.803127 17.0349 0.757978 15.9119 1.62812 15.5651Z" fill="black" stroke="black" stroke-miterlimit="10"/>
</svg>
