<svg width="932" height="89" viewBox="0 0 932 89" fill="none" xmlns="http://www.w3.org/2000/svg">
<g clip-path="url(#clip0_1174_9846)">
<path d="M13.1356 23.0974C10.5584 25.7871 5.66188 26.9398 1.92504 26.9398H-0.0078125V15.2845H1.28075C7.46588 15.2845 13.5221 11.5701 15.3261 3.88525H25.377V86.4976H13.1356V23.0974Z" fill="#DED9D0"/>
<path d="M78.5948 67.7978V86.6257H66.6111V67.7978H40.7109V58.576L63.9051 4.01343H78.5948V58.0636H87.3571V67.7978H78.5948ZM66.9977 17.59H66.74C65.9668 21.6886 64.6783 25.0187 63.0031 29.3735L54.3697 50.635C53.3389 53.3247 52.0503 56.0143 50.6329 58.0636H66.4823V29.7577C66.4823 25.9153 66.4823 21.6886 66.8688 17.59H66.9977Z" fill="#DED9D0"/>
<path d="M101.273 62.2902V28.2207C101.273 10.9297 109.391 2.22021 123.437 2.22021C137.482 2.22021 145.6 11.0578 145.6 28.2207V62.2902C145.6 79.5812 137.353 88.2907 123.437 88.2907C109.52 88.2907 101.273 79.4531 101.273 62.2902ZM133.101 63.3149V27.196C133.101 17.0776 129.622 12.0825 123.308 12.0825C116.994 12.0825 113.515 17.0776 113.515 27.068V63.1868C113.515 73.3052 116.865 78.3004 123.308 78.3004C129.751 78.3004 133.101 73.3052 133.101 63.3149Z" fill="#DED9D0"/>
<path d="M191.219 2.0922H203.202L208.872 59.2164C209.388 63.8273 209.645 68.3101 209.774 73.6895H210.29C210.805 69.3348 211.192 64.3396 211.578 59.6006L218.794 1.96411H232.453L239.54 59.6006C239.927 64.2115 240.313 69.2067 240.829 73.6895H241.344C241.602 68.3101 241.988 63.8273 242.246 59.2164L247.916 2.0922H259.899L249.977 86.4976H233.87L227.17 31.6789C226.525 26.5557 226.268 20.2797 226.01 15.925H225.366C225.108 20.1516 224.722 26.5557 224.206 31.6789L217.634 86.4976H201.398L191.476 2.0922H191.219Z" fill="#DED9D0"/>
<path d="M276.258 86.4975V2.09204H288.757V86.4975H276.258Z" fill="#DED9D0"/>
<path d="M307.703 2.09204H320.202V75.2263H341.85V86.4975H307.703V2.09204Z" fill="#DED9D0"/>
<path d="M357.703 2.09204H370.202V75.2263H391.85V86.4975H357.703V2.09204Z" fill="#DED9D0"/>
<path d="M407.695 86.4975V2.09204H420.194V86.4975H407.695Z" fill="#DED9D0"/>
<path d="M469.678 64.0833H452.669L448.675 86.4975H436.047L453.056 2.09204H469.163L486.301 86.4975H473.673L469.678 64.0833ZM468.003 54.4772L462.978 26.1713C462.205 22.0727 461.818 18.1022 461.303 13.7474H460.916C460.401 18.1022 460.014 22.0727 459.37 26.1713L454.345 54.4772H468.003Z" fill="#DED9D0"/>
<path d="M502.277 2.09204H520.446L529.724 55.8861C530.497 60.497 531.141 64.4675 531.27 68.31H531.785C531.785 64.4675 532.559 60.6251 533.332 55.8861L542.609 2.09204H560.649V86.4975H549.568V38.0828C549.568 32.063 549.568 20.9199 549.825 15.0282H549.31C548.795 19.5111 548.537 22.0727 547.377 29.1171L537.069 86.3694H525.858L515.421 29.1171C514.39 21.9446 513.746 16.309 513.488 15.0282H512.972C513.23 20.9199 513.23 32.063 513.23 38.0828V86.4975H502.148V2.09204H502.277Z" fill="#DED9D0"/>
<path d="M609.742 66.1326V59.0882L622.499 56.6546V65.2361C622.499 73.9456 625.334 78.4284 631.39 78.4284C637.446 78.4284 639.637 74.4579 639.637 68.1819V65.108C639.637 58.4478 638.864 55.1177 632.163 50.891L621.984 44.4869C613.479 38.9795 610.515 32.7035 610.515 23.994V19.7673C610.515 7.47152 618.762 0.170898 631.261 0.170898C643.76 0.170898 652.265 5.93454 652.265 20.7919V27.0679L639.766 29.5015V22.0728C639.766 14.2598 637.189 10.1612 631.261 10.1612C625.334 10.1612 623.401 13.8756 623.401 18.9988V23.0974C623.401 28.6049 625.463 32.1912 630.488 35.2651L640.926 41.9253C650.461 47.9451 652.651 54.4773 652.651 63.6991V68.1819C652.651 81.1181 645.307 88.803 631.261 88.803C617.216 88.803 609.742 80.862 609.742 66.3888V66.1326Z" fill="#DED9D0"/>
<path d="M709.604 13.1071H693.11V86.6256H680.74V13.1071H664.117V2.22021H709.604V13.1071Z" fill="#DED9D0"/>
<path d="M744.781 51.1472H737.437V86.6256H724.938V2.22021H744.91C760.502 2.22021 766.816 10.0332 766.945 23.8659V28.6049C766.945 39.1076 763.079 45.7678 756.507 48.5856L769.006 86.6256H755.734L744.781 51.1472ZM744.137 42.4377C751.224 42.4377 753.93 38.0829 753.93 28.8611V23.994C753.93 14.9002 751.095 11.314 744.008 11.314H737.437V42.4377H744.137Z" fill="#DED9D0"/>
<path d="M821.326 76.251V86.4975H785.117V2.09204H820.553V12.3385H797.745V37.9547H818.62V48.2012H797.745V76.379H821.455L821.326 76.251Z" fill="#DED9D0"/>
<path d="M873.771 76.251V86.4975H837.562V2.09204H872.998V12.3385H850.19V37.9547H871.065V48.2012H850.19V76.379H873.9L873.771 76.251Z" fill="#DED9D0"/>
<path d="M932.01 13.1071H915.516V86.6256H903.146V13.1071H886.523V2.22021H932.01V13.1071Z" fill="#DED9D0"/>
</g>
<defs>
<clipPath id="clip0_1174_9846">
<rect width="932" height="89" fill="white"/>
</clipPath>
</defs>
</svg>
